<svg width="46" height="82" viewBox="0 0 46 82" fill="none" xmlns="http://www.w3.org/2000/svg">
<path d="M13.6776 16.9565C13.3702 16.9016 13.0684 17.0498 12.8872 17.2967L12.8488 17.3625C12.7719 17.4449 12.7061 17.5327 12.6622 17.6369C12.5524 17.8729 12.514 18.1637 12.503 18.4216C12.4975 18.6466 12.514 18.8661 12.5469 19.0856C12.5469 19.2393 12.5469 19.3929 12.5579 19.5466C12.5689 19.777 12.6402 20.0185 12.7829 20.2106C12.975 20.4685 13.3208 20.6112 13.6392 20.5398C13.9685 20.463 14.232 20.2435 14.3692 19.9307C14.457 19.7331 14.4735 19.5136 14.4845 19.2996C14.5119 19.1734 14.5284 19.0472 14.5394 18.921C14.5778 18.471 14.5613 17.9223 14.3527 17.5107C14.21 17.2308 13.985 17.0168 13.6776 16.9565Z" fill="#242647"/>
<path d="M26.6041 19.5466C26.6151 19.7771 26.6865 20.0185 26.8292 20.2106C27.0213 20.4685 27.3671 20.6112 27.6855 20.5398C28.0148 20.463 28.2782 20.2435 28.4155 19.9307C28.5033 19.7332 28.5198 19.5137 28.5307 19.2996C28.5582 19.1734 28.5747 19.0472 28.5856 18.921C28.6241 18.471 28.6076 17.9223 28.399 17.5107C28.2618 17.2363 28.0422 17.0168 27.7294 16.962C27.422 16.9071 27.1201 17.0552 26.939 17.3022L26.9006 17.368C26.8237 17.4503 26.7578 17.5381 26.7139 17.6424C26.6042 17.8784 26.5657 18.1692 26.5548 18.4271C26.5493 18.6521 26.5657 18.8716 26.5987 19.0911C26.5932 19.2393 26.5932 19.3929 26.6041 19.5466Z" fill="#242647"/>
<path d="M23.4699 22.8171C23.7388 22.1806 22.888 21.758 22.4654 22.2409C22.169 22.5757 21.944 22.8884 21.5378 23.1079C21.1371 23.322 20.6815 23.4427 20.2259 23.4537C19.732 23.4646 19.2379 23.3604 18.7604 23.2342C18.5024 23.1683 18.25 23.0695 18.0139 22.9543C17.7615 22.8336 17.5364 22.7019 17.251 22.7019C17.1412 22.7019 17.0204 22.7842 17.0479 22.9104C17.1796 23.514 17.8987 23.8982 18.3981 24.178C19.0019 24.5182 19.71 24.6499 20.4016 24.6225C20.9834 24.6006 21.5762 24.4414 22.0867 24.1616C22.6301 23.8597 23.2174 23.4098 23.4699 22.8171Z" fill="#242647"/>
<path d="M44.9038 38.1986C43.7731 37.6718 42.5051 38.8132 41.6489 39.4278C40.5786 40.1961 39.5796 41.0522 38.6465 41.9795C38.4544 41.7381 38.2732 41.4912 38.0976 41.2607C36.8626 39.6528 35.6496 38.0285 34.4475 36.3932C33.7504 35.4494 33.0588 34.5055 32.3563 33.5617C31.8842 32.9251 31.4231 32.2337 30.8688 31.652C33.0204 30.8344 34.969 29.7094 36.6266 28.3321C40.2273 25.3524 42.4942 21.1873 42.4887 16.5723C42.4887 11.9573 40.2273 7.79228 36.6266 4.81256C33.0259 1.82735 28.0749 0 22.6245 0C17.1741 0 12.2231 1.82735 8.62242 4.81256C5.02721 7.79777 2.76032 11.9628 2.76032 16.5778C2.76032 21.1928 5.02173 25.3578 8.62242 28.3376C10.549 29.9344 12.8708 31.1966 15.4396 32.0307C14.6217 32.6892 14.0289 33.6111 13.4087 34.4452C12.7116 35.389 12.0145 36.3329 11.3174 37.2767C10.1154 38.912 8.90235 40.5308 7.66736 42.1442C7.49172 42.3746 7.31059 42.6216 7.11848 42.863C6.18537 41.9356 5.18091 41.0796 4.11607 40.3113C3.25981 39.6967 1.99188 38.5553 0.861179 39.0821C-0.0664377 39.5156 -0.176216 40.7119 0.208004 41.546C0.636135 42.4789 1.42652 43.3898 2.15654 44.0977C2.91949 44.8385 3.91847 45.3873 5.00526 45.3983C6.03717 45.4092 6.89344 44.8879 7.59053 44.1636C8.38641 43.3404 9.0231 42.3472 9.70372 41.4308C10.4612 40.3991 11.2132 39.362 11.9597 38.3194C12.7061 37.2767 13.4416 36.2286 14.1607 35.164C14.5174 34.6372 14.9017 34.1049 15.231 33.5452C14.8468 35.3396 14.5504 37.156 14.2156 38.9559C13.7765 41.2991 13.255 43.6477 12.9531 46.0129C12.6842 48.0981 12.6842 50.3535 13.6447 52.2796C14.49 53.9643 15.9555 55.2154 17.6461 56.0056C18.4091 56.3623 19.1995 56.6148 20.0008 56.7739C19.902 57.9208 20.0118 59.139 20.0612 60.2749L20.2368 64.215C20.3411 66.4813 20.4564 68.7532 20.5717 71.0195C18.8097 72.7755 17.4375 74.9156 16.6801 77.2917C16.3727 78.2576 16.0982 79.3825 16.5319 80.3593C16.9874 81.3964 18.1456 81.7312 19.1555 81.3086C21.3895 80.3757 21.9384 77.4125 21.9604 75.2833C21.9878 72.4518 21.6694 69.5982 21.4883 66.7777C21.3785 65.0326 21.2523 63.2876 21.1315 61.5426C21.0712 60.67 21.0163 59.7975 20.9339 58.925C20.8736 58.2555 20.8406 57.5586 20.7254 56.8836C24.0022 57.3281 27.4602 56.4007 30.512 55.2758C32.208 54.6502 33.8712 53.8106 35.1281 52.4772C36.5333 50.9791 36.9504 48.9487 36.5552 46.9622C36.3027 45.6891 35.8033 44.4819 35.2873 43.2965C34.7274 42.0015 34.1621 40.7064 33.6022 39.4169C32.6911 37.3371 31.7744 35.2628 30.8523 33.1885C31.0938 33.5562 31.3518 33.9184 31.5933 34.2751C32.3123 35.3396 33.0478 36.3878 33.7943 37.4304C34.5408 38.473 35.2928 39.5102 36.0502 40.5418C36.7254 41.4637 37.3676 42.4515 38.1635 43.2746C38.8605 43.999 39.7168 44.5203 40.7487 44.5093C41.8355 44.4983 42.829 43.9496 43.5974 43.2087C44.3274 42.5009 45.1179 41.5899 45.546 40.657C45.9412 39.8339 45.8314 38.6322 44.9038 38.1986ZM5.98777 43.9057C5.19189 44.3556 4.26427 44.1306 3.55621 43.6258C2.83717 43.1155 2.31572 42.3856 1.79977 41.6777C1.58022 41.3759 1.2454 40.9918 1.25638 40.5967C1.27284 40.0534 1.71744 40.251 2.04128 40.4375C3.57816 41.3156 4.98332 42.5063 6.25124 43.7465C6.16342 43.7959 6.08108 43.8563 5.98777 43.9057ZM20.171 78.4332C19.8636 79.1356 19.1007 80.3922 18.173 80.2495C17.2893 80.1123 17.5912 78.6801 17.7504 78.1149C18.3048 76.1449 19.3312 74.2956 20.6705 72.7481C20.7857 74.6413 20.9394 76.6717 20.171 78.4332ZM4.07764 16.5778C4.07764 12.4073 6.11401 8.61541 9.46771 5.83324C12.8159 3.05655 17.4705 1.32249 22.63 1.32249C27.784 1.32249 32.4441 3.05655 35.7923 5.83324C39.1405 8.60992 41.1768 12.4018 41.1823 16.5778C41.1823 20.7483 39.146 24.5402 35.7923 27.3224C32.4441 30.0991 27.7895 31.8331 22.63 31.8331C17.476 31.8331 12.8159 30.0991 9.46771 27.3224C6.1195 24.5402 4.08313 20.7483 4.07764 16.5778ZM34.4859 44.866C35.216 46.6659 35.8417 48.7676 34.8207 50.584C34.0358 51.9833 32.5538 52.8503 31.1322 53.4814C29.3044 54.2935 27.323 54.8862 25.358 55.2593C23.3765 55.6325 21.2797 55.7258 19.3367 55.1222C17.7339 54.6228 16.2574 53.7174 15.2584 52.3455C14.0674 50.7212 13.9137 48.6688 14.0838 46.7262C14.2979 44.3063 14.8248 41.9082 15.242 39.5156C15.6536 37.1286 16.1531 34.725 16.4221 32.316C18.3761 32.8538 20.4619 33.1446 22.63 33.1446C24.8475 33.1446 26.9772 32.8373 28.9696 32.2776C30.8358 36.4591 32.7679 40.6241 34.4859 44.866ZM43.9707 40.7997C43.4547 41.5076 42.9333 42.2375 42.2142 42.7478C41.5007 43.2526 40.5786 43.4776 39.7827 43.0277C39.6949 42.9783 39.607 42.9179 39.5247 42.8575C40.7926 41.6229 42.1978 40.4266 43.7346 39.5486C44.0585 39.362 44.5031 39.1699 44.5196 39.7077C44.5251 40.1138 44.1902 40.4924 43.9707 40.7997Z" fill="#242647"/>
<path d="M36.44 58.5519C35.9076 58.6013 35.4849 58.9634 35.1666 59.3695C34.6945 59.9786 34.3103 60.6865 33.8987 61.3395C33.0479 62.684 32.1916 64.0284 31.3408 65.3729C30.9127 66.0478 30.4901 66.7173 30.0619 67.3923C30.0125 67.4691 29.6722 68.1441 29.5405 68.1221C29.4033 68.1002 29.3484 67.1069 29.3374 67.0081C29.1234 65.2631 28.9751 63.5126 28.8818 61.7566C28.783 59.9347 28.7995 58.1074 28.6733 56.291C28.6513 55.9288 28.086 55.9508 28.0475 56.2965C27.7292 59.0622 27.8993 61.9212 28.0914 64.6924C28.1408 65.3729 28.1957 66.0533 28.2616 66.7338C28.3165 67.3045 28.3055 67.9465 28.536 68.4788C28.7172 68.9013 29.0849 69.2086 29.557 69.2086C30.0729 69.2032 30.4352 68.8355 30.7096 68.4349C32.0764 66.4429 33.3443 64.3686 34.6342 62.3218C34.5848 62.9364 34.5628 63.551 34.6012 64.1711C34.6616 65.2686 34.7604 66.871 35.9899 67.31C37.2194 67.749 38.2458 66.6185 38.5038 65.532C38.8331 64.1656 38.6904 62.5852 38.405 61.2188C38.2074 60.2036 37.8342 58.4202 36.44 58.5519ZM37.439 64.7912C37.3841 65.2851 37.1975 66.2179 36.5168 66.1905C35.9295 66.1686 35.9021 65.093 35.8582 64.6869C35.6935 63.1724 35.8252 61.6194 36.2314 60.1487C36.2589 60.05 36.2644 59.9567 36.2479 59.8744L36.3631 59.7921C36.8791 59.4902 37.0657 60.5713 37.1481 60.895C37.4609 62.1572 37.5872 63.4906 37.439 64.7912Z" fill="#242647"/>
</svg>
